name Visual3d_SIMM_input.mot
datacolumns 42
datarows 17
range 0.360000 0.520000
endheader
time	pelvis_tx	pelvis_ty	pelvis_tz	pelvis_tilt	pelvis_list	pelvis_rotation	hip_flexion_r	hip_adduction_r	hip_rotation_r	knee_angle_r	ankle_angle_r	subtalar_angle_r	mtp_angle_r	hip_flexion_l	hip_adduction_l	hip_rotation_l	knee_angle_l	ankle_angle_l	subtalar_angle_l	mtp_angle_l	lumbar_extension	lumbar_bending	lumbar_rotation	ground_force_vx	ground_force_vy	ground_force_vz	ground_force_px	ground_force_py	ground_force_pz	ground_force_vx	ground_force_vy	ground_force_vz	ground_force_px	ground_force_py	ground_force_pz	ground_torque_x	ground_torque_y	ground_torque_z	ground_torque_x	ground_torque_y	ground_torque_z
0.360000	-0.410764	0.692633	-0.254914	-12.149314	-4.385250	8.290427	33.476806	-2.046162	-36.573443	-13.055810	8.816453	0.000000	0.000000	-5.687408	-6.611868	-7.041565	-18.812177	11.294878	0.000000	0.000000	27.841251	2.736643	-9.476042	-20.526062	126.845978	0.224201	-0.297255	-0.001977	-0.213943	0.000000	0.000000	0.000000	0.000000	0.000000	0.000000	0.000200	-0.216573	0.000483	0.000000	0.000000	0.000000
0.370000	-0.397384	0.693897	-0.252534	-11.931347	-4.519858	7.954469	33.071131	-1.608929	-34.547394	-14.816251	8.596106	0.000000	0.000000	-5.484826	-6.838917	-6.413534	-20.927993	8.460632	0.000000	0.000000	27.872759	2.953583	-9.509803	-22.961895	141.300552	-1.874490	-0.295145	-0.002218	-0.212818	0.000000	0.000000	0.000000	0.000000	0.000000	0.000000	0.000231	-0.249921	0.000558	0.000000	0.000000	0.000000
0.380000	-0.384101	0.695211	-0.250105	-11.715604	-4.664701	7.598596	32.613675	-1.095011	-32.553016	-16.427160	8.399981	0.000000	0.000000	-5.146524	-7.069906	-5.813159	-23.335553	5.612517	-0.000000	0.000000	27.885712	3.188141	-9.533838	-25.098951	156.934723	-3.856149	-0.292916	-0.002185	-0.211436	0.000000	0.000000	0.000000	0.000000	0.000000	0.000000	0.000257	-0.278142	0.000621	0.000000	0.000000	0.000000
0.390000	-0.371026	0.696544	-0.247644	-11.510817	-4.810284	7.217627	32.073049	-0.500064	-30.659357	-17.788620	8.252247	0.000000	0.000000	-4.589871	-7.282716	-5.261195	-26.086881	2.882901	-0.000000	0.000000	27.870502	3.434266	-9.527817	-26.874195	173.949127	-5.494276	-0.290714	-0.001960	-0.209942	0.000000	0.000000	0.000000	0.000000	0.000000	0.000000	0.000273	-0.295128	0.000659	0.000000	0.000000	0.000000
0.400000	-0.358235	0.697864	-0.245174	-11.323916	-4.950877	6.815959	31.434556	0.166356	-28.918188	-18.854684	8.179662	0.000000	0.000000	-3.763169	-7.459431	-4.754868	-29.191300	0.374124	-0.000000	0.000000	27.823892	3.684848	-9.478910	-28.156727	191.612213	-6.679253	-0.288629	-0.001630	-0.208491	0.000000	0.000000	0.000000	0.000000	0.000000	0.000000	0.000273	-0.295290	0.000659	0.000000	0.000000	0.000000
0.410000	-0.345766	0.699143	-0.242720	-11.156898	-5.089805	6.402007	30.692913	0.894152	-27.361536	-19.617558	8.203043	0.000000	0.000000	-2.649273	-7.595328	-4.285781	-32.617719	-1.829663	-0.000000	0.000000	27.746136	3.939312	-9.380573	-28.819611	208.742294	-7.368893	-0.286707	-0.001265	-0.207230	0.000000	0.000000	0.000000	0.000000	0.000000	0.000000	0.000257	-0.278142	0.000621	0.000000	0.000000	0.000000
0.420000	-0.333637	0.700357	-0.240304	-11.013334	-5.234241	5.985916	29.857014	1.670595	-26.003500	-20.097587	8.333862	0.000000	0.000000	-1.251397	-7.692201	-3.842542	-36.308910	-3.640072	-0.000000	0.000000	27.643398	4.199967	-9.230942	-28.771900	224.195221	-7.584757	-0.284961	-0.000906	-0.206258	0.000000	0.000000	0.000000	0.000000	0.000000	0.000000	0.000229	-0.247661	0.000553	0.000000	0.000000	0.000000
0.430000	-0.321861	0.701471	-0.237953	-10.910870	-5.384464	5.579304	28.962454	2.468405	-24.845160	-20.340235	8.575161	0.000000	0.000000	0.429654	-7.744208	-3.407522	-40.196360	-4.958801	-0.000000	0.000000	27.535230	4.461544	-9.031130	-27.979019	237.081177	-7.435859	-0.283380	-0.000568	-0.205606	0.000000	0.000000	0.000000	0.000000	0.000000	0.000000	0.000192	-0.207741	0.000464	0.000000	0.000000	0.000000
0.440000	-0.310450	0.702449	-0.235689	-10.877498	-5.528097	5.191860	28.063205	3.244146	-23.877896	-20.407130	8.923109	0.000000	0.000000	2.395319	-7.733355	-2.966925	-44.202478	-5.706253	-0.000000	0.000000	27.449764	4.707226	-8.781254	-26.492990	246.812378	-7.121981	-0.281927	-0.000254	-0.205223	0.000000	0.000000	0.000000	0.000000	0.000000	0.000000	0.000147	-0.159110	0.000355	0.000000	0.000000	0.000000
0.450000	-0.299394	0.703281	-0.233522	-10.928682	-5.642405	4.825417	27.199736	3.950494	-23.082348	-20.360350	9.368176	-0.000000	0.000000	4.622366	-7.636475	-2.525783	-48.233635	-5.852603	-0.000000	0.000000	27.403440	4.914700	-8.475193	-24.438541	253.144287	-6.874071	-0.280554	0.000033	-0.204990	0.000000	0.000000	0.000000	0.000000	0.000000	0.000000	0.000093	-0.100895	0.000225	0.000000	0.000000	0.000000
0.460000	-0.288656	0.703991	-0.231444	-11.055352	-5.702328	4.471227	26.380508	4.551511	-22.425931	-20.248349	9.894902	-0.000000	0.000000	7.051246	-7.436319	-2.110875	-52.182194	-5.422654	-0.000000	0.000000	27.391091	5.065099	-8.099899	-21.975861	256.150757	-6.856766	-0.279201	0.000290	-0.204768	0.000000	0.000000	0.000000	0.000000	0.000000	0.000000	0.000032	-0.034330	0.000077	0.000000	0.000000	0.000000
0.470000	-0.278179	0.704619	-0.229430	-11.234300	-5.688694	4.112982	25.591744	5.030406	-21.865092	-20.099999	10.481645	-0.000000	0.000000	9.605594	-7.129499	-1.761471	-55.940561	-4.485081	-0.000000	0.000000	27.396008	5.147787	-7.640634	-19.268349	256.147736	-7.120821	-0.277799	0.000512	-0.204446	0.000000	0.000000	0.000000	0.000000	0.000000	0.000000	-0.000034	0.036416	-0.000081	0.000000	0.000000	0.000000
0.480000	-0.267904	0.705204	-0.227445	-11.440673	-5.590760	3.731994	24.812259	5.387009	-21.352934	-19.927137	11.103269	-0.000000	0.000000	12.213321	-6.726239	-1.517192	-59.413582	-3.139571	-0.000000	0.000000	27.400824	5.159739	-7.086285	-16.462547	253.644257	-7.622747	-0.276274	0.000697	-0.203960	0.000000	0.000000	0.000000	0.000000	0.000000	0.000000	-0.000100	0.107655	-0.000240	0.000000	0.000000	0.000000
0.490000	-0.257774	0.705772	-0.225456	-11.653214	-5.405802	3.311891	24.020968	5.631840	-20.848485	-19.729980	11.735182	-0.000000	0.000000	14.815582	-6.246081	-1.407827	-62.524467	-1.502233	-0.000000	0.000000	27.391646	5.103712	-6.433719	-13.676719	249.281891	-8.251904	-0.274561	0.000847	-0.203292	0.000000	0.000000	0.000000	0.000000	0.000000	0.000000	-0.000165	0.177999	-0.000397	0.000000	0.000000	0.000000
0.500000	-0.247742	0.706337	-0.223441	-11.856317	-5.140516	2.843178	23.200418	5.782401	-20.326906	-19.501536	12.356004	-0.000000	0.000000	17.370383	-5.715948	-1.446122	-65.217979	0.310531	-0.000000	0.000000	27.360264	4.988275	-5.694116	-11.000812	243.746323	-8.865865	-0.272597	0.000962	-0.202460	0.000000	0.000000	0.000000	0.000000	0.000000	0.000000	-0.000230	0.248300	-0.000554	0.000000	0.000000	0.000000
0.510000	-0.237768	0.706898	-0.221395	-12.039329	-4.809666	2.324348	22.337587	5.858894	-19.783636	-19.232730	12.949786	0.000000	0.000000	19.850411	-5.167223	-1.628236	-67.459524	2.193762	-0.000000	0.000000	27.303601	4.826703	-4.894136	-8.506094	237.679596	-9.338542	-0.270312	0.001046	-0.201500	0.000000	0.000000	0.000000	0.000000	0.000000	0.000000	-0.000297	0.321169	-0.000717	0.000000	0.000000	0.000000
0.520000	-0.227817	0.707443	-0.219323	-12.195004	-4.430274	1.757717	21.424159	5.879111	-19.226993	-18.918053	13.507816	0.000000	0.000000	22.237064	-4.629815	-1.941259	-69.229855	4.058660	-0.000000	0.000000	27.221306	4.633586	-4.067759	-6.246546	231.617523	-9.597367	-0.267630	0.001102	-0.200446	0.000000	0.000000	0.000000	0.000000	0.000000	0.000000	-0.000371	0.400589	-0.000894	0.000000	0.000000	0.000000
